<svg xmlns="http://www.w3.org/2000/svg" xmlns:xlink="http://www.w3.org/1999/xlink" xmlns:lucid="lucid" width="925" height="1670"><g transform="translate(-68 -63)" lucid:page-tab-id="0_0"><path d="M900 160.5v5m0 5v10m0 4.98v10m0 5v10m0 4.98v10m0 5v10m0 5v9.98m0 5v10m0 5v9.98m0 5v10m0 5v9.98m0 5v10m0 5v9.98m0 5v10m0 5v9.98m0 5v10m0 5v9.98m0 5v10m0 5v9.98m0 5v10m0 5v9.98m0 5v10m0 5v10m0 4.98v10m0 5v10m0 4.98v10m0 5v10m0 4.98v10m0 5v10m0 4.98v10m0 5v10m0 5v9.98m0 5v10m0 5v9.98m0 5v10m0 5v9.98m0 5v10m0 5v9.98m0 5v10m0 5v9.98m0 5v10m0 5v9.98m0 5v10m0 5v9.98m0 5v10m0 5v9.98m0 5v10m0 5v9.98m0 5v10m0 5v10m0 4.98v10m0 5v10m0 4.98v10m0 5v10m0 4.98v10m0 5v10m0 4.98v10m0 5v10m0 5v9.98m0 5v10m0 5v9.98m0 5v10m0 5v9.98m0 5v10m0 5v9.98m0 5v10m0 5v9.98m0 5v10m0 5v9.98m0 5v10m0 5v9.98m0 5v10m0 5v9.98m0 5v10m0 5v10m0 4.98v10m0 5v10m0 4.98v10m0 5v10m0 4.98v10m0 5v10m0 4.98v10m0 5v10m0 5v9.98m0 5v10m0 5v9.98m0 5v10m0 5v9.98m0 5v10m0 5v9.98m0 5v10m0 5v9.98m0 5v10m0 5v9.98m0 5v10m0 5v9.98m0 5v10m0 5v9.98m0 5v10m0 5v9.98m0 5v10m0 5v10m0 4.98v10m0 5v10m0 4.98v5" stroke="#333" fill="none"/><path d="M900.5 160.5h-1v-.5h1" fill="#333"/><path d="M900 1719.5v.5M522 160.5v5m0 5v9.98m0 5v10m0 4.98v10m0 5v9.98m0 5v10m0 5v9.98m0 5v9.98m0 5v10m0 5v9.98m0 5v9.98m0 5v10m0 5v9.98m0 5v9.98m0 5v10m0 5v9.98m0 5v10m0 4.98v10m0 5v9.98m0 5v10m0 4.98v10m0 5v9.98m0 5v10m0 4.98v10m0 5v9.98m0 5v10m0 4.98v10m0 5v9.98m0 5v10m0 4.98v10m0 5v9.98m0 5v10m0 4.98v10m0 5v9.98m0 5v10m0 4.98v10m0 5V705m0 5v10m0 4.98v10m0 5v9.98m0 5v10m0 4.98v10m0 5v9.98m0 5v10m0 5v9.98m0 5v9.98m0 5v10m0 5v9.98m0 5v9.98m0 5v10m0 5v9.98m0 5v9.98m0 5v10m0 5v9.98m0 5v10m0 4.98v10m0 5v9.98m0 5v10m0 4.98v10m0 5v9.98m0 5v10m0 4.98v10m0 5v9.98m0 5v10m0 4.98v10m0 5v9.98m0 5v10m0 4.98v10m0 5v9.98m0 5v10m0 4.98v10m0 5v9.98m0 5v10m0 4.98v10m0 5v9.98m0 5v10m0 4.98v5" stroke="#333" fill="none"/><path d="M522.5 160.5h-1v-.5h1M522.5 1300h-1v-.5h1" fill="#333"/><path d="M420 83c0-4.42 3.58-8 8-8h188c4.42 0 8 3.58 8 8v69c0 4.42-3.58 8-8 8H428c-4.42 0-8-3.58-8-8z" fill="#ffc4c4"/><use xlink:href="#a" transform="matrix(1,0,0,1,420,74.99999999996112) translate(30.116111111111103 45.21875)"/><use xlink:href="#b" transform="matrix(1,0,0,1,420,74.99999999996112) translate(111.67166666666667 45.21875)"/><path d="M504.8 519c0-2.2 1.78-4 4-4h32c2.2 0 4 1.8 4 4v177c0 2.2-1.8 4-4 4h-32c-2.22 0-4-1.8-4-4z" stroke="#000" stroke-opacity="0" stroke-width="2" fill="#fe7070"/><path d="M180.5 555h307.9" stroke="#333" fill="none"/><path d="M180.5 555.5h-.5v-1h.5" fill="#333"/><path d="M503.17 555l-14.27 4.64v-9.28z" stroke="#333" fill="#333"/><use xlink:href="#c" transform="matrix(1,0,0,1,221.66846490299793,529.4000000000004) translate(0 14.4)"/><use xlink:href="#d" transform="matrix(1,0,0,1,221.66846490299793,529.4000000000004) translate(71.95 14.4)"/><use xlink:href="#e" transform="matrix(1,0,0,1,221.66846490299793,529.4000000000004) translate(91.95 14.4)"/><use xlink:href="#f" transform="matrix(1,0,0,1,221.66846490299793,529.4000000000004) translate(188.55 14.4)"/><path d="M504.8 789c0-2.2 1.78-4 4-4h32c2.2 0 4 1.8 4 4v507c0 2.2-1.8 4-4 4h-32c-2.22 0-4-1.8-4-4z" stroke="#000" stroke-opacity="0" stroke-width="2" fill="#fe7070"/><path d="M180.5 734.85H208c6.63 0 12 5.38 12 12v62.8c0 6.64-5.37 12-12 12h-11.62" stroke="#333" fill="none"/><path d="M180.5 735.35h-.5v-1h.5" fill="#333"/><path d="M181.62 821.66l14.26-4.64v9.27z" stroke="#333" fill="#333"/><use xlink:href="#g" transform="matrix(1,0,0,1,228,767.4561019896266) translate(0 14.4)"/><use xlink:href="#h" transform="matrix(1,0,0,1,228,767.4561019896266) translate(40.900000000000006 14.4)"/><use xlink:href="#i" transform="matrix(1,0,0,1,228,767.4561019896266) translate(138.7 14.4)"/><path d="M880 304c0-2.2 1.8-4 4-4h32c2.2 0 4 1.8 4 4v1372c0 2.2-1.8 4-4 4h-32c-2.2 0-4-1.8-4-4z" stroke="#000" stroke-opacity="0" stroke-width="2" fill="#fe7070"/><path d="M504.3 652.54H196.37" stroke="#333" fill="none"/><path d="M504.8 653.04h-.53v-1h.52" fill="#333"/><path d="M181.62 652.54l14.26-4.64v9.27z" stroke="#333" fill="#333"/><use xlink:href="#j" transform="matrix(1,0,0,1,239.51846490299795,626.9378085913022) translate(0.0049999999999954525 14.4)"/><use xlink:href="#k" transform="matrix(1,0,0,1,239.51846490299795,626.9378085913022) translate(50.905 14.4)"/><use xlink:href="#l" transform="matrix(1,0,0,1,239.51846490299795,626.9378085913022) translate(73.805 14.4)"/><use xlink:href="#m" transform="matrix(1,0,0,1,239.51846490299795,626.9378085913022) translate(161.805 14.4)"/><path d="M502 304c0-2.2 1.8-4 4-4h32c2.2 0 4 1.8 4 4v132c0 2.2-1.8 4-4 4h-32c-2.2 0-4-1.8-4-4z" stroke="#000" stroke-opacity="0" stroke-width="2" fill="#fe7070"/><path d="M180.5 340h305.12" stroke="#333" fill="none"/><path d="M180.5 340.5h-.5v-1h.5" fill="#333"/><path d="M500.38 340l-14.26 4.64v-9.28z" stroke="#333" fill="#333"/><use xlink:href="#n" transform="matrix(1,0,0,1,188.69999999999993,309.76474508437553) translate(0 14.4)"/><use xlink:href="#o" transform="matrix(1,0,0,1,188.69999999999993,309.76474508437553) translate(104.95 14.4)"/><use xlink:href="#p" transform="matrix(1,0,0,1,188.69999999999993,309.76474508437553) translate(141.85000000000002 14.4)"/><path d="M504.3 400H196.37M504.27 400h.52" stroke="#333" fill="none"/><path d="M181.62 400l14.26-4.64v9.28z" stroke="#333" fill="#333"/><use xlink:href="#q" transform="matrix(1,0,0,1,193.49346490299794,408.6352549156242) translate(0.0049999999999954525 14.4)"/><use xlink:href="#r" transform="matrix(1,0,0,1,193.49346490299794,408.6352549156242) translate(58.905 14.4)"/><use xlink:href="#s" transform="matrix(1,0,0,1,193.49346490299794,408.6352549156242) translate(83.905 14.4)"/><use xlink:href="#t" transform="matrix(1,0,0,1,193.49346490299794,408.6352549156242) translate(144.905 14.4)"/><use xlink:href="#u" transform="matrix(1,0,0,1,193.49346490299794,408.6352549156242) translate(193.905 14.4)"/><use xlink:href="#v" transform="matrix(1,0,0,1,193.49346490299794,408.6352549156242) translate(228.905 14.4)"/><use xlink:href="#w" transform="matrix(1,0,0,1,193.49346490299794,408.6352549156242) translate(268.855 14.4)"/><path d="M542.5 399.6h321.12" stroke="#333" fill="none"/><path d="M542.5 400.1h-.5v-1h.5" fill="#333"/><path d="M878.38 399.6l-14.26 4.64v-9.27z" stroke="#333" fill="#333"/><use xlink:href="#q" transform="matrix(1,0,0,1,562.1,403.6045754446736) translate(0.0049999999999954525 14.4)"/><use xlink:href="#r" transform="matrix(1,0,0,1,562.1,403.6045754446736) translate(58.905 14.4)"/><use xlink:href="#s" transform="matrix(1,0,0,1,562.1,403.6045754446736) translate(83.905 14.4)"/><use xlink:href="#t" transform="matrix(1,0,0,1,562.1,403.6045754446736) translate(144.905 14.4)"/><use xlink:href="#u" transform="matrix(1,0,0,1,562.1,403.6045754446736) translate(193.905 14.4)"/><use xlink:href="#v" transform="matrix(1,0,0,1,562.1,403.6045754446736) translate(228.905 14.4)"/><use xlink:href="#w" transform="matrix(1,0,0,1,562.1,403.6045754446736) translate(268.855 14.4)"/><path d="M879.5 330.76H558.38" stroke="#333" fill="none"/><path d="M880 331.26h-.5v-1h.5" fill="#333"/><path d="M543.62 330.76l14.26-4.64v9.27z" stroke="#333" fill="#333"/><use xlink:href="#x" transform="matrix(1,0,0,1,558.7,305.15884334559087) translate(0.0049999999999954525 14.4)"/><use xlink:href="#y" transform="matrix(1,0,0,1,558.7,305.15884334559087) translate(104.955 14.4)"/><use xlink:href="#z" transform="matrix(1,0,0,1,558.7,305.15884334559087) translate(141.85500000000002 14.4)"/><path d="M879.5 556.75H561.17" stroke="#333" fill="none"/><path d="M880 557.25h-.5v-1h.5" fill="#333"/><path d="M546.4 556.75l14.27-4.63v9.27z" stroke="#333" fill="#333"/><use xlink:href="#A" transform="matrix(1,0,0,1,591.6684649029979,531.1524421925793) translate(0.0049999999999954525 14.4)"/><use xlink:href="#B" transform="matrix(1,0,0,1,591.6684649029979,531.1524421925793) translate(71.955 14.4)"/><use xlink:href="#C" transform="matrix(1,0,0,1,591.6684649029979,531.1524421925793) translate(91.955 14.4)"/><use xlink:href="#D" transform="matrix(1,0,0,1,591.6684649029979,531.1524421925793) translate(188.555 14.4)"/><path d="M545.3 655.53H863.6" stroke="#333" fill="none"/><path d="M545.3 656.03h-.5v-1h.5" fill="#333"/><path d="M878.38 655.53l-14.26 4.64v-9.27z" stroke="#333" fill="#333"/><use xlink:href="#j" transform="matrix(1,0,0,1,609.518464902998,629.9311012912623) translate(0.0049999999999954525 14.4)"/><use xlink:href="#k" transform="matrix(1,0,0,1,609.518464902998,629.9311012912623) translate(50.905 14.4)"/><use xlink:href="#l" transform="matrix(1,0,0,1,609.518464902998,629.9311012912623) translate(73.805 14.4)"/><use xlink:href="#m" transform="matrix(1,0,0,1,609.518464902998,629.9311012912623) translate(161.805 14.4)"/><path d="M180.5 886h307.9" stroke="#333" fill="none"/><path d="M180.5 886.5h-.5v-1h.5" fill="#333"/><path d="M503.17 886l-14.27 4.65v-9.27z" stroke="#333" fill="#333"/><use xlink:href="#E" transform="matrix(1,0,0,1,272.46846490299794,860.4146391881906) translate(0.0049999999999954525 14.4)"/><use xlink:href="#F" transform="matrix(1,0,0,1,272.46846490299794,860.4146391881906) translate(47.004999999999995 14.4)"/><use xlink:href="#G" transform="matrix(1,0,0,1,272.46846490299794,860.4146391881906) translate(89.955 14.4)"/><path d="M545.3 882.5H863.6" stroke="#333" fill="none"/><path d="M545.3 883h-.5v-1h.5" fill="#333"/><path d="M878.38 882.5l-14.26 4.64v-9.28z" stroke="#333" fill="#333"/><use xlink:href="#E" transform="matrix(1,0,0,1,642.468464902998,856.8999999999999) translate(0.0049999999999954525 14.4)"/><use xlink:href="#F" transform="matrix(1,0,0,1,642.468464902998,856.8999999999999) translate(47.004999999999995 14.4)"/><use xlink:href="#G" transform="matrix(1,0,0,1,642.468464902998,856.8999999999999) translate(89.955 14.4)"/><path d="M879.5 921.93H852c-6.63 0-12 5.38-12 12v68.8c0 6.62 5.37 12 12 12h11.62" stroke="#333" fill="none"/><path d="M880 922.43h-.5v-1h.5" fill="#333"/><path d="M878.38 1014.73l-14.26 4.63v-9.27z" stroke="#333" fill="#333"/><path d="M600 940.6c0-4.42 3.58-8 8-8h224c4.42 0 8 3.58 8 8v58.8c0 4.42-3.58 8-8 8H608c-4.42 0-8-3.58-8-8z" stroke="#000" stroke-opacity="0" fill="#fff" fill-opacity="0"/><use xlink:href="#H" transform="matrix(1,0,0,1,605,937.6) translate(12.175000000000011 14.4)"/><use xlink:href="#I" transform="matrix(1,0,0,1,605,937.6) translate(53.07500000000002 14.4)"/><use xlink:href="#J" transform="matrix(1,0,0,1,605,937.6) translate(150.875 14.4)"/><use xlink:href="#K" transform="matrix(1,0,0,1,605,937.6) translate(0.5999999999999943 36)"/><use xlink:href="#L" transform="matrix(1,0,0,1,605,937.6) translate(35.599999999999994 36)"/><use xlink:href="#M" transform="matrix(1,0,0,1,605,937.6) translate(67.5 36)"/><use xlink:href="#N" transform="matrix(1,0,0,1,605,937.6) translate(122.4 36)"/><use xlink:href="#B" transform="matrix(1,0,0,1,605,937.6) translate(156.4 36)"/><use xlink:href="#O" transform="matrix(1,0,0,1,605,937.6) translate(176.4 36)"/><use xlink:href="#P" transform="matrix(1,0,0,1,605,937.6) translate(56.525 57.6)"/><use xlink:href="#Q" transform="matrix(1,0,0,1,605,937.6) translate(86.525 57.6)"/><path d="M879.5 1088.06H561.17" stroke="#333" fill="none"/><path d="M880 1088.56h-.5v-1h.5" fill="#333"/><path d="M546.4 1088.06l14.27-4.63v9.27z" stroke="#333" fill="#333"/><use xlink:href="#j" transform="matrix(1,0,0,1,604.468464902998,1062.4618964354972) translate(0.0049999999999954525 14.4)"/><use xlink:href="#R" transform="matrix(1,0,0,1,604.468464902998,1062.4618964354972) translate(50.905 14.4)"/><use xlink:href="#S" transform="matrix(1,0,0,1,604.468464902998,1062.4618964354972) translate(142.85500000000002 14.4)"/><path d="M504.3 1089.56H196.37" stroke="#333" fill="none"/><path d="M504.8 1090.06h-.53v-1h.52" fill="#333"/><path d="M181.62 1089.56l14.26-4.64v9.27z" stroke="#333" fill="#333"/><g><use xlink:href="#j" transform="matrix(1,0,0,1,234.46846490299794,1063.9585427854772) translate(0.0049999999999954525 14.4)"/><use xlink:href="#R" transform="matrix(1,0,0,1,234.46846490299794,1063.9585427854772) translate(50.905 14.4)"/><use xlink:href="#S" transform="matrix(1,0,0,1,234.46846490299794,1063.9585427854772) translate(142.85500000000002 14.4)"/></g><path d="M180.5 1155.4H208c6.63 0 12 5.38 12 12v71.8c0 6.62-5.37 12-12 12h-11.62" stroke="#333" fill="none"/><path d="M180.5 1155.9h-.5v-1h.5" fill="#333"/><path d="M181.62 1251.2l14.26-4.64v9.27z" stroke="#333" fill="#333"/><path d="M240 1180.6c0-4.42 3.58-8 8-8h224c4.42 0 8 3.58 8 8v58.8c0 4.42-3.58 8-8 8H248c-4.42 0-8-3.58-8-8z" stroke="#000" stroke-opacity="0" fill="#fff" fill-opacity="0"/><g><use xlink:href="#T" transform="matrix(1,0,0,1,245,1177.6) translate(0 24.55625)"/><use xlink:href="#M" transform="matrix(1,0,0,1,245,1177.6) translate(35.85 24.55625)"/><use xlink:href="#N" transform="matrix(1,0,0,1,245,1177.6) translate(90.75 24.55625)"/><use xlink:href="#B" transform="matrix(1,0,0,1,245,1177.6) translate(124.75 24.55625)"/><use xlink:href="#U" transform="matrix(1,0,0,1,245,1177.6) translate(144.75 24.55625)"/><use xlink:href="#V" transform="matrix(1,0,0,1,245,1177.6) translate(0 46.15625)"/><use xlink:href="#P" transform="matrix(1,0,0,1,245,1177.6) translate(75.9 46.15625)"/><use xlink:href="#Q" transform="matrix(1,0,0,1,245,1177.6) translate(105.9 46.15625)"/></g><path d="M40 95.5c0-4.42 3.58-8 8-8h224c4.42 0 8 3.58 8 8v44c0 4.42-3.58 8-8 8H48c-4.42 0-8-3.58-8-8z" stroke="#000" stroke-opacity="0" fill="#fff" fill-opacity="0"/><path d="M80 88c0-4.42 3.58-8 8-8h144c4.42 0 8 3.58 8 8v64c0 4.42-3.58 8-8 8H88c-4.42 0-8-3.58-8-8z" fill="#ffc4c4"/><g><use xlink:href="#W" transform="matrix(1,0,0,1,80,80) translate(8.075679012345683 31.177777777777777)"/><use xlink:href="#X" transform="matrix(1,0,0,1,80,80) translate(57.507777777777775 31.177777777777777)"/><use xlink:href="#Y" transform="matrix(1,0,0,1,80,80) translate(76.94358024691358 31.177777777777777)"/><use xlink:href="#Z" transform="matrix(1,0,0,1,80,80) translate(10.771975308641979 55.44444444444444)"/><use xlink:href="#aa" transform="matrix(1,0,0,1,80,80) translate(93.2337037037037 55.44444444444444)"/></g><path d="M820 88c0-4.42 3.58-8 8-8h144c4.42 0 8 3.58 8 8v64c0 4.42-3.58 8-8 8H828c-4.42 0-8-3.58-8-8z" fill="#ffc4c4"/><g><use xlink:href="#W" transform="matrix(1,0,0,1,820,80) translate(7.710555555555567 31.177777777777777)"/><use xlink:href="#ab" transform="matrix(1,0,0,1,820,80) translate(57.14265432098766 31.177777777777777)"/><use xlink:href="#Y" transform="matrix(1,0,0,1,820,80) translate(77.3087037037037 31.177777777777777)"/><use xlink:href="#Z" transform="matrix(1,0,0,1,820,80) translate(10.771975308641979 55.44444444444444)"/><use xlink:href="#aa" transform="matrix(1,0,0,1,820,80) translate(93.2337037037037 55.44444444444444)"/></g><path d="M196.38 1650.8h667.24" stroke="#333" fill="none"/><path d="M181.62 1650.8l14.26-4.63v9.27zM878.38 1650.8l-14.26 4.64v-9.27z" stroke="#333" fill="#333"/><g><use xlink:href="#ac" transform="matrix(1,0,0,1,431.8,1625.2009240279963) translate(0.0049999999999954525 14.4)"/><use xlink:href="#ad" transform="matrix(1,0,0,1,431.8,1625.2009240279963) translate(92.60499999999999 14.4)"/><use xlink:href="#u" transform="matrix(1,0,0,1,431.8,1625.2009240279963) translate(128.45499999999998 14.4)"/><use xlink:href="#ae" transform="matrix(1,0,0,1,431.8,1625.2009240279963) translate(163.45499999999998 14.4)"/></g><path d="M160 160.5v5m0 5v10m0 4.98v10m0 5v10m0 4.98v10m0 5v10m0 5v9.98m0 5v10m0 5v9.98m0 5v10m0 5v9.98m0 5v10m0 5v9.98m0 5v10m0 5v9.98m0 5v10m0 5v9.98m0 5v10m0 5v9.98m0 5v10m0 5v9.98m0 5v10m0 5v10m0 4.98v10m0 5v10m0 4.98v10m0 5v10m0 4.98v10m0 5v10m0 4.98v10m0 5v10m0 5v9.98m0 5v10m0 5v9.98m0 5v10m0 5v9.98m0 5v10m0 5v9.98m0 5v10m0 5v9.98m0 5v10m0 5v9.98m0 5v10m0 5v9.98m0 5v10m0 5v9.98m0 5v10m0 5v9.98m0 5v10m0 5v10m0 4.98v10m0 5v10m0 4.98v10m0 5v10m0 4.98v10m0 5v10m0 4.98v10m0 5v10m0 5v9.98m0 5v10m0 5v9.98m0 5v10m0 5v9.98m0 5v10m0 5v9.98m0 5v10m0 5v9.98m0 5v10m0 5v9.98m0 5v10m0 5v9.98m0 5v10m0 5v9.98m0 5v10m0 5v10m0 4.98v10m0 5v10m0 4.98v10m0 5v10m0 4.98v10m0 5v10m0 4.98v10m0 5v10m0 5v9.98m0 5v10m0 5v9.98m0 5v10m0 5v9.98m0 5v10m0 5v9.98m0 5v10m0 5v9.98m0 5v10m0 5v9.98m0 5v10m0 5v9.98m0 5v10m0 5v9.98m0 5v10m0 5v9.98m0 5v10m0 5v10m0 4.98v10m0 5v10m0 4.98v5M160 160.5v-.5M160 1719.5v.5" stroke="#333" fill="none"/><path d="M140 304c0-2.2 1.8-4 4-4h32c2.2 0 4 1.8 4 4v1372c0 2.2-1.8 4-4 4h-32c-2.2 0-4-1.8-4-4zM504.8 1344c0-2.2 1.78-4 4-4h32c2.2 0 4 1.8 4 4v192c0 2.2-1.8 4-4 4h-32c-2.22 0-4-1.8-4-4z" stroke="#000" stroke-opacity="0" stroke-width="2" fill="#fe7070"/><path d="M180.5 1384.4h307.9" stroke="#333" fill="none"/><path d="M180.5 1384.9h-.5v-1h.5" fill="#333"/><path d="M503.17 1384.4l-14.27 4.63v-9.27z" stroke="#333" fill="#333"/><g><use xlink:href="#T" transform="matrix(1,0,0,1,296.99346490299797,1358.7978737315473) translate(0.005000000000002558 14.4)"/><use xlink:href="#F" transform="matrix(1,0,0,1,296.99346490299797,1358.7978737315473) translate(35.855000000000004 14.4)"/><use xlink:href="#af" transform="matrix(1,0,0,1,296.99346490299797,1358.7978737315473) translate(78.805 14.4)"/></g><path d="M545.3 1384.4H863.6" stroke="#333" fill="none"/><path d="M545.3 1384.9h-.5v-1h.5" fill="#333"/><path d="M878.38 1384.4l-14.26 4.63v-9.27z" stroke="#333" fill="#333"/><g><use xlink:href="#j" transform="matrix(1,0,0,1,635.0684649029979,1358.7978737315473) translate(0.0049999999999954525 14.4)"/><use xlink:href="#ag" transform="matrix(1,0,0,1,635.0684649029979,1358.7978737315473) translate(50.905 14.4)"/><use xlink:href="#ah" transform="matrix(1,0,0,1,635.0684649029979,1358.7978737315473) translate(127.75500000000001 14.4)"/></g><path d="M879.5 1459.23H561.17" stroke="#333" fill="none"/><path d="M880 1459.73h-.5v-1h.5" fill="#333"/><path d="M546.4 1459.23l14.27-4.64v9.27z" stroke="#333" fill="#333"/><g><use xlink:href="#T" transform="matrix(1,0,0,1,657.968464902998,1433.6301912305498) translate(0.005000000000002558 14.4)"/><use xlink:href="#S" transform="matrix(1,0,0,1,657.968464902998,1433.6301912305498) translate(35.855000000000004 14.4)"/></g><path d="M504.3 1460.73H196.37" stroke="#333" fill="none"/><path d="M504.8 1461.23h-.53v-1h.52" fill="#333"/><path d="M181.62 1460.73l14.26-4.64v9.26z" stroke="#333" fill="#333"/><g><use xlink:href="#j" transform="matrix(1,0,0,1,264.49346490299797,1435.1268375805298) translate(0.0049999999999954525 14.4)"/><use xlink:href="#L" transform="matrix(1,0,0,1,264.49346490299797,1435.1268375805298) translate(50.905 14.4)"/><use xlink:href="#S" transform="matrix(1,0,0,1,264.49346490299797,1435.1268375805298) translate(82.805 14.4)"/></g><path d="M180.5 1517.6H208c6.63 0 12 5.37 12 12v65.8c0 6.63-5.37 12-12 12h-11.62" stroke="#333" fill="none"/><path d="M180.5 1518.1h-.5v-1h.5" fill="#333"/><path d="M181.62 1607.4l14.26-4.64v9.27z" stroke="#333" fill="#333"/><g><use xlink:href="#ai" transform="matrix(1,0,0,1,228.00000000000003,1551.6987893791731) translate(0.0049999999999954525 14.4)"/><use xlink:href="#aj" transform="matrix(1,0,0,1,228.00000000000003,1551.6987893791731) translate(15.004999999999995 14.4)"/><use xlink:href="#ak" transform="matrix(1,0,0,1,228.00000000000003,1551.6987893791731) translate(49.004999999999995 14.4)"/><use xlink:href="#al" transform="matrix(1,0,0,1,228.00000000000003,1551.6987893791731) translate(145.905 14.4)"/></g><path d="M879.5 1522.1H852c-6.63 0-12 5.36-12 12v65.8c0 6.62 5.37 12 12 12h11.62" stroke="#333" fill="none"/><path d="M880 1522.6h-.5v-1h.5" fill="#333"/><path d="M878.38 1611.9l-14.26 4.62v-9.27z" stroke="#333" fill="#333"/><g><use xlink:href="#am" transform="matrix(1,0,0,1,646.1999999999999,1556.188728429113) translate(0.0049999999999954525 14.4)"/><use xlink:href="#ak" transform="matrix(1,0,0,1,646.1999999999999,1556.188728429113) translate(34.004999999999995 14.4)"/><use xlink:href="#al" transform="matrix(1,0,0,1,646.1999999999999,1556.188728429113) translate(130.905 14.4)"/></g><defs><path fill="#333" d="M136-208V0H84v-208H4v-40h212v40h-80" id="an"/><path fill="#333" d="M25-224v-37h50v37H25zM25 0v-190h50V0H25" id="ao"/><path fill="#333" d="M115-3C79 11 28 4 28-45v-112H4v-33h27l15-45h31v45h36v33H77v99c-1 23 16 31 38 25v30" id="ap"/><path fill="#333" d="M133-34C117-15 103 5 69 4 32 3 11-16 11-54c-1-60 55-63 116-61 1-26-3-47-28-47-18 1-26 9-28 27l-52-2c7-38 36-58 82-57s74 22 75 68l1 82c-1 14 12 18 25 15v27c-30 8-71 5-69-32zm-48 3c29 0 43-24 42-57-32 0-66-3-65 30 0 17 8 27 23 27" id="aq"/><path fill="#333" d="M135-194c87-1 58 113 63 194h-50c-7-57 23-157-34-157-59 0-34 97-39 157H25l-1-190h47c2 12-1 28 3 38 12-26 28-41 61-42" id="ar"/><path fill="#333" d="M238-95c0 69-44 99-111 99C63 4 22-25 22-93v-155h51v151c-1 38 19 59 55 60 90 1 49-130 58-211h52v153" id="as"/><path fill="#333" d="M67-125c0 53 21 87 73 88 37 1 54-22 65-47l45 17C233-25 199 4 140 4 58 4 20-42 15-125 8-235 124-281 211-232c18 10 29 29 36 50l-46 12c-8-25-30-41-62-41-52 0-71 34-72 86" id="at"/><g id="a"><use transform="matrix(0.05555555555555555,0,0,0.05555555555555555,0,0)" xlink:href="#an"/><use transform="matrix(0.05555555555555555,0,0,0.05555555555555555,11.777777777777777,0)" xlink:href="#ao"/><use transform="matrix(0.05555555555555555,0,0,0.05555555555555555,17.333333333333332,0)" xlink:href="#ap"/><use transform="matrix(0.05555555555555555,0,0,0.05555555555555555,23.944444444444443,0)" xlink:href="#aq"/><use transform="matrix(0.05555555555555555,0,0,0.05555555555555555,35.05555555555556,0)" xlink:href="#ar"/><use transform="matrix(0.05555555555555555,0,0,0.05555555555555555,47.22222222222222,0)" xlink:href="#as"/><use transform="matrix(0.05555555555555555,0,0,0.05555555555555555,61.61111111111111,0)" xlink:href="#at"/><path fill="#333" d="M-1 1.07h83.56v2.1H-1z"/></g><path fill="#333" d="M169-182c-1-43-94-46-97-3 18 66 151 10 154 114 3 95-165 93-204 36-6-8-10-19-12-30l50-8c3 46 112 56 116 5-17-69-150-10-154-114-4-87 153-88 188-35 5 8 8 18 10 28" id="au"/><path fill="#333" d="M185-48c-13 30-37 53-82 52C43 2 14-33 14-96s30-98 90-98c62 0 83 45 84 108H66c0 31 8 55 39 56 18 0 30-7 34-22zm-45-69c5-46-57-63-70-21-2 6-4 13-4 21h74" id="av"/><path fill="#333" d="M135-150c-39-12-60 13-60 57V0H25l-1-190h47c2 13-1 29 3 40 6-28 27-53 61-41v41" id="aw"/><path fill="#333" d="M128 0H69L1-190h53L99-40l48-150h52" id="ax"/><g id="b"><use transform="matrix(0.05555555555555555,0,0,0.05555555555555555,0,0)" xlink:href="#au"/><use transform="matrix(0.05555555555555555,0,0,0.05555555555555555,13.333333333333332,0)" xlink:href="#av"/><use transform="matrix(0.05555555555555555,0,0,0.05555555555555555,24.444444444444443,0)" xlink:href="#aw"/><use transform="matrix(0.05555555555555555,0,0,0.05555555555555555,32.22222222222222,0)" xlink:href="#ax"/><use transform="matrix(0.05555555555555555,0,0,0.05555555555555555,43.33333333333333,0)" xlink:href="#av"/><use transform="matrix(0.05555555555555555,0,0,0.05555555555555555,54.44444444444444,0)" xlink:href="#aw"/><path fill="#333" d="M-1 1.07h64.22v2.1H-1z"/></g><path fill="#333" d="M212-179c-10-28-35-45-73-45-59 0-87 40-87 99 0 60 29 101 89 101 43 0 62-24 78-52l27 14C228-24 195 4 139 4 59 4 22-46 18-125c-6-104 99-153 187-111 19 9 31 26 39 46" id="ay"/><path fill="#333" d="M100-194c62-1 85 37 85 99 1 63-27 99-86 99S16-35 15-95c0-66 28-99 85-99zM99-20c44 1 53-31 53-75 0-43-8-75-51-75s-53 32-53 75 10 74 51 75" id="az"/><path fill="#333" d="M117-194c89-4 53 116 60 194h-32v-121c0-31-8-49-39-48C34-167 62-67 57 0H25l-1-190h30c1 10-1 24 2 32 11-22 29-35 61-36" id="aA"/><path fill="#333" d="M100-194c63 0 86 42 84 106H49c0 40 14 67 53 68 26 1 43-12 49-29l28 8c-11 28-37 45-77 45C44 4 14-33 15-96c1-61 26-98 85-98zm52 81c6-60-76-77-97-28-3 7-6 17-6 28h103" id="aB"/><path fill="#333" d="M96-169c-40 0-48 33-48 73s9 75 48 75c24 0 41-14 43-38l32 2c-6 37-31 61-74 61-59 0-76-41-82-99-10-93 101-131 147-64 4 7 5 14 7 22l-32 3c-4-21-16-35-41-35" id="aC"/><path fill="#333" d="M59-47c-2 24 18 29 38 22v24C64 9 27 4 27-40v-127H5v-23h24l9-43h21v43h35v23H59v120" id="aD"/><g id="c"><use transform="matrix(0.05,0,0,0.05,0,0)" xlink:href="#ay"/><use transform="matrix(0.05,0,0,0.05,12.950000000000001,0)" xlink:href="#az"/><use transform="matrix(0.05,0,0,0.05,22.950000000000003,0)" xlink:href="#aA"/><use transform="matrix(0.05,0,0,0.05,32.95,0)" xlink:href="#aA"/><use transform="matrix(0.05,0,0,0.05,42.95,0)" xlink:href="#aB"/><use transform="matrix(0.05,0,0,0.05,52.95,0)" xlink:href="#aC"/><use transform="matrix(0.05,0,0,0.05,61.95,0)" xlink:href="#aD"/></g><g id="d"><use transform="matrix(0.05,0,0,0.05,0,0)" xlink:href="#aD"/><use transform="matrix(0.05,0,0,0.05,5,0)" xlink:href="#az"/></g><path fill="#333" d="M266 0h-40l-56-210L115 0H75L2-248h35L96-30l15-64 43-154h32l59 218 59-218h35" id="aE"/><path fill="#333" d="M115-194c53 0 69 39 70 98 0 66-23 100-70 100C84 3 66-7 56-30L54 0H23l1-261h32v101c10-23 28-34 59-34zm-8 174c40 0 45-34 45-75 0-40-5-75-45-74-42 0-51 32-51 76 0 43 10 73 51 73" id="aF"/><path fill="#333" d="M185-189c-5-48-123-54-124 2 14 75 158 14 163 119 3 78-121 87-175 55-17-10-28-26-33-46l33-7c5 56 141 63 141-1 0-78-155-14-162-118-5-82 145-84 179-34 5 7 8 16 11 25" id="aG"/><path fill="#333" d="M143 0L79-87 56-68V0H24v-261h32v163l83-92h37l-77 82L181 0h-38" id="aH"/><g id="e"><use transform="matrix(0.05,0,0,0.05,0,0)" xlink:href="#aE"/><use transform="matrix(0.05,0,0,0.05,16.599999999999998,0)" xlink:href="#aB"/><use transform="matrix(0.05,0,0,0.05,26.599999999999994,0)" xlink:href="#aF"/><use transform="matrix(0.05,0,0,0.05,36.599999999999994,0)" xlink:href="#aG"/><use transform="matrix(0.05,0,0,0.05,48.599999999999994,0)" xlink:href="#az"/><use transform="matrix(0.05,0,0,0.05,58.599999999999994,0)" xlink:href="#aC"/><use transform="matrix(0.05,0,0,0.05,67.6,0)" xlink:href="#aH"/><use transform="matrix(0.05,0,0,0.05,76.6,0)" xlink:href="#aB"/><use transform="matrix(0.05,0,0,0.05,86.6,0)" xlink:href="#aD"/></g><path fill="#333" d="M114-163C36-179 61-72 57 0H25l-1-190h30c1 12-1 29 2 39 6-27 23-49 58-41v29" id="aI"/><path fill="#333" d="M108 0H70L1-190h34L89-25l56-165h34" id="aJ"/><g id="f"><use transform="matrix(0.05,0,0,0.05,0,0)" xlink:href="#aG"/><use transform="matrix(0.05,0,0,0.05,12,0)" xlink:href="#aB"/><use transform="matrix(0.05,0,0,0.05,22,0)" xlink:href="#aI"/><use transform="matrix(0.05,0,0,0.05,27.950000000000003,0)" xlink:href="#aJ"/><use transform="matrix(0.05,0,0,0.05,36.95,0)" xlink:href="#aB"/><use transform="matrix(0.05,0,0,0.05,46.95,0)" xlink:href="#aI"/></g><path fill="#333" d="M190 0L58-211 59 0H30v-248h39L202-35l-2-213h31V0h-41" id="aK"/><path fill="#333" d="M206 0h-36l-40-164L89 0H53L-1-190h32L70-26l43-164h34l41 164 42-164h31" id="aL"/><g id="g"><use transform="matrix(0.05,0,0,0.05,0,0)" xlink:href="#aK"/><use transform="matrix(0.05,0,0,0.05,12.950000000000001,0)" xlink:href="#aB"/><use transform="matrix(0.05,0,0,0.05,22.950000000000003,0)" xlink:href="#aL"/></g><path fill="#333" d="M24-231v-30h32v30H24zM24 0v-190h32V0H24" id="aM"/><path fill="#333" d="M210-169c-67 3-38 105-44 169h-31v-121c0-29-5-50-35-48C34-165 62-65 56 0H25l-1-190h30c1 10-1 24 2 32 10-44 99-50 107 0 11-21 27-35 58-36 85-2 47 119 55 194h-31v-121c0-29-5-49-35-48" id="aN"/><path fill="#333" d="M115-194c55 1 70 41 70 98S169 2 115 4C84 4 66-9 55-30l1 105H24l-1-265h31l2 30c10-21 28-34 59-34zm-8 174c40 0 45-34 45-75s-6-73-45-74c-42 0-51 32-51 76 0 43 10 73 51 73" id="aO"/><path fill="#333" d="M24 0v-261h32V0H24" id="aP"/><path fill="#333" d="M30-248c87 1 191-15 191 75 0 78-77 80-158 76V0H30v-248zm33 125c57 0 124 11 124-50 0-59-68-47-124-48v98" id="aQ"/><g id="h"><use transform="matrix(0.05,0,0,0.05,0,0)" xlink:href="#aG"/><use transform="matrix(0.05,0,0,0.05,12,0)" xlink:href="#aM"/><use transform="matrix(0.05,0,0,0.05,15.949999999999998,0)" xlink:href="#aN"/><use transform="matrix(0.05,0,0,0.05,30.899999999999995,0)" xlink:href="#aO"/><use transform="matrix(0.05,0,0,0.05,40.9,0)" xlink:href="#aP"/><use transform="matrix(0.05,0,0,0.05,44.85,0)" xlink:href="#aB"/><use transform="matrix(0.05,0,0,0.05,54.85,0)" xlink:href="#aQ"/><use transform="matrix(0.05,0,0,0.05,66.85,0)" xlink:href="#aB"/><use transform="matrix(0.05,0,0,0.05,76.85,0)" xlink:href="#aB"/><use transform="matrix(0.05,0,0,0.05,86.85,0)" xlink:href="#aI"/></g><path fill="#333" d="M135-143c-3-34-86-38-87 0 15 53 115 12 119 90S17 21 10-45l28-5c4 36 97 45 98 0-10-56-113-15-118-90-4-57 82-63 122-42 12 7 21 19 24 35" id="aR"/><path fill="#333" d="M141-36C126-15 110 5 73 4 37 3 15-17 15-53c-1-64 63-63 125-63 3-35-9-54-41-54-24 1-41 7-42 31l-33-3c5-37 33-52 76-52 45 0 72 20 72 64v82c-1 20 7 32 28 27v20c-31 9-61-2-59-35zM48-53c0 20 12 33 32 33 41-3 63-29 60-74-43 2-92-5-92 41" id="aS"/><g id="i"><use transform="matrix(0.05,0,0,0.05,0,0)" xlink:href="#aM"/><use transform="matrix(0.05,0,0,0.05,3.95,0)" xlink:href="#aA"/><use transform="matrix(0.05,0,0,0.05,13.949999999999998,0)" xlink:href="#aR"/><use transform="matrix(0.05,0,0,0.05,22.95,0)" xlink:href="#aD"/><use transform="matrix(0.05,0,0,0.05,27.950000000000003,0)" xlink:href="#aS"/><use transform="matrix(0.05,0,0,0.05,37.95,0)" xlink:href="#aA"/><use transform="matrix(0.05,0,0,0.05,47.95,0)" xlink:href="#aC"/><use transform="matrix(0.05,0,0,0.05,56.95,0)" xlink:href="#aB"/></g><path fill="#333" d="M101-234c-31-9-42 10-38 44h38v23H63V0H32v-167H5v-23h27c-7-52 17-82 69-68v24" id="aT"/><path fill="#333" d="M179-190L93 31C79 59 56 82 12 73V49c39 6 53-20 64-50L1-190h34L92-34l54-156h33" id="aU"/><g id="j"><use transform="matrix(0.05,0,0,0.05,0,0)" xlink:href="#aK"/><use transform="matrix(0.05,0,0,0.05,12.950000000000001,0)" xlink:href="#az"/><use transform="matrix(0.05,0,0,0.05,22.950000000000003,0)" xlink:href="#aD"/><use transform="matrix(0.05,0,0,0.05,27.950000000000003,0)" xlink:href="#aM"/><use transform="matrix(0.05,0,0,0.05,31.900000000000002,0)" xlink:href="#aT"/><use transform="matrix(0.05,0,0,0.05,36.900000000000006,0)" xlink:href="#aU"/></g><g id="k"><use transform="matrix(0.05,0,0,0.05,0,0)" xlink:href="#aS"/><use transform="matrix(0.05,0,0,0.05,10,0)" xlink:href="#aP"/><use transform="matrix(0.05,0,0,0.05,13.949999999999998,0)" xlink:href="#aP"/></g><path fill="#333" d="M85-194c31 0 48 13 60 33l-1-100h32l1 261h-30c-2-10 0-23-3-31C134-8 116 4 85 4 32 4 16-35 15-94c0-66 23-100 70-100zm9 24c-40 0-46 34-46 75 0 40 6 74 45 74 42 0 51-32 51-76 0-42-9-74-50-73" id="aV"/><g id="l"><use transform="matrix(0.05,0,0,0.05,0,0)" xlink:href="#aC"/><use transform="matrix(0.05,0,0,0.05,9,0)" xlink:href="#az"/><use transform="matrix(0.05,0,0,0.05,19,0)" xlink:href="#aA"/><use transform="matrix(0.05,0,0,0.05,29,0)" xlink:href="#aA"/><use transform="matrix(0.05,0,0,0.05,39,0)" xlink:href="#aB"/><use transform="matrix(0.05,0,0,0.05,49,0)" xlink:href="#aC"/><use transform="matrix(0.05,0,0,0.05,58,0)" xlink:href="#aD"/><use transform="matrix(0.05,0,0,0.05,63,0)" xlink:href="#aB"/><use transform="matrix(0.05,0,0,0.05,73,0)" xlink:href="#aV"/></g><path fill="#333" d="M84 4C-5 8 30-112 23-190h32v120c0 31 7 50 39 49 72-2 45-101 50-169h31l1 190h-30c-1-10 1-25-2-33-11 22-28 36-60 37" id="aW"/><g id="m"><use transform="matrix(0.05,0,0,0.05,0,0)" xlink:href="#aW"/><use transform="matrix(0.05,0,0,0.05,10,0)" xlink:href="#aR"/><use transform="matrix(0.05,0,0,0.05,19,0)" xlink:href="#aB"/><use transform="matrix(0.05,0,0,0.05,29,0)" xlink:href="#aI"/><use transform="matrix(0.05,0,0,0.05,34.95,0)" xlink:href="#aR"/></g><path fill="#333" d="M205 0l-28-72H64L36 0H1l101-248h38L239 0h-34zm-38-99l-47-123c-12 45-31 82-46 123h93" id="aX"/><path fill="#333" d="M106-169C34-169 62-67 57 0H25v-261h32l-1 103c12-21 28-36 61-36 89 0 53 116 60 194h-32v-121c2-32-8-49-39-48" id="aY"/><g id="n"><use transform="matrix(0.05,0,0,0.05,0,0)" xlink:href="#aX"/><use transform="matrix(0.05,0,0,0.05,12,0)" xlink:href="#aW"/><use transform="matrix(0.05,0,0,0.05,22,0)" xlink:href="#aD"/><use transform="matrix(0.05,0,0,0.05,27,0)" xlink:href="#aY"/><use transform="matrix(0.05,0,0,0.05,37,0)" xlink:href="#aB"/><use transform="matrix(0.05,0,0,0.05,47,0)" xlink:href="#aA"/><use transform="matrix(0.05,0,0,0.05,57,0)" xlink:href="#aD"/><use transform="matrix(0.05,0,0,0.05,62,0)" xlink:href="#aM"/><use transform="matrix(0.05,0,0,0.05,65.95,0)" xlink:href="#aC"/><use transform="matrix(0.05,0,0,0.05,74.95,0)" xlink:href="#aS"/><use transform="matrix(0.05,0,0,0.05,84.95,0)" xlink:href="#aD"/><use transform="matrix(0.05,0,0,0.05,89.95,0)" xlink:href="#aB"/></g><g id="o"><use transform="matrix(0.05,0,0,0.05,0,0)" xlink:href="#aL"/><use transform="matrix(0.05,0,0,0.05,12.950000000000001,0)" xlink:href="#aM"/><use transform="matrix(0.05,0,0,0.05,16.900000000000002,0)" xlink:href="#aD"/><use transform="matrix(0.05,0,0,0.05,21.900000000000002,0)" xlink:href="#aY"/></g><path fill="#333" d="M16-82v-28h88v28H16" id="aZ"/><g id="p"><use transform="matrix(0.05,0,0,0.05,0,0)" xlink:href="#aW"/><use transform="matrix(0.05,0,0,0.05,10,0)" xlink:href="#aR"/><use transform="matrix(0.05,0,0,0.05,19,0)" xlink:href="#aB"/><use transform="matrix(0.05,0,0,0.05,29,0)" xlink:href="#aI"/><use transform="matrix(0.05,0,0,0.05,34.95,0)" xlink:href="#aA"/><use transform="matrix(0.05,0,0,0.05,44.95,0)" xlink:href="#aS"/><use transform="matrix(0.05,0,0,0.05,54.95,0)" xlink:href="#aN"/><use transform="matrix(0.05,0,0,0.05,69.9,0)" xlink:href="#aB"/><use transform="matrix(0.05,0,0,0.05,79.9,0)" xlink:href="#aZ"/><use transform="matrix(0.05,0,0,0.05,85.85000000000001,0)" xlink:href="#aO"/><use transform="matrix(0.05,0,0,0.05,95.85000000000001,0)" xlink:href="#aS"/><use transform="matrix(0.05,0,0,0.05,105.85000000000001,0)" xlink:href="#aR"/><use transform="matrix(0.05,0,0,0.05,114.85000000000001,0)" xlink:href="#aR"/><use transform="matrix(0.05,0,0,0.05,123.85000000000001,0)" xlink:href="#aL"/><use transform="matrix(0.05,0,0,0.05,136.8,0)" xlink:href="#az"/><use transform="matrix(0.05,0,0,0.05,146.8,0)" xlink:href="#aI"/><use transform="matrix(0.05,0,0,0.05,152.75,0)" xlink:href="#aV"/></g><path fill="#333" d="M233-177c-1 41-23 64-60 70L243 0h-38l-65-103H63V0H30v-248c88 3 205-21 203 71zM63-129c60-2 137 13 137-47 0-61-80-42-137-45v92" id="ba"/><g id="q"><use transform="matrix(0.05,0,0,0.05,0,0)" xlink:href="#ba"/><use transform="matrix(0.05,0,0,0.05,12.950000000000001,0)" xlink:href="#aB"/><use transform="matrix(0.05,0,0,0.05,22.950000000000003,0)" xlink:href="#aD"/><use transform="matrix(0.05,0,0,0.05,27.950000000000003,0)" xlink:href="#aW"/><use transform="matrix(0.05,0,0,0.05,37.95,0)" xlink:href="#aI"/><use transform="matrix(0.05,0,0,0.05,43.900000000000006,0)" xlink:href="#aA"/></g><g id="r"><use transform="matrix(0.05,0,0,0.05,0,0)" xlink:href="#aS"/><use transform="matrix(0.05,0,0,0.05,10,0)" xlink:href="#aA"/></g><g id="s"><use transform="matrix(0.05,0,0,0.05,0,0)" xlink:href="#aS"/><use transform="matrix(0.05,0,0,0.05,10,0)" xlink:href="#aC"/><use transform="matrix(0.05,0,0,0.05,19,0)" xlink:href="#aC"/><use transform="matrix(0.05,0,0,0.05,28,0)" xlink:href="#aB"/><use transform="matrix(0.05,0,0,0.05,38,0)" xlink:href="#aR"/><use transform="matrix(0.05,0,0,0.05,47,0)" xlink:href="#aR"/></g><g id="t"><use transform="matrix(0.05,0,0,0.05,0,0)" xlink:href="#aD"/><use transform="matrix(0.05,0,0,0.05,5,0)" xlink:href="#az"/><use transform="matrix(0.05,0,0,0.05,15,0)" xlink:href="#aH"/><use transform="matrix(0.05,0,0,0.05,24,0)" xlink:href="#aB"/><use transform="matrix(0.05,0,0,0.05,34,0)" xlink:href="#aA"/></g><g id="u"><use transform="matrix(0.05,0,0,0.05,0,0)" xlink:href="#aS"/><use transform="matrix(0.05,0,0,0.05,10,0)" xlink:href="#aA"/><use transform="matrix(0.05,0,0,0.05,20,0)" xlink:href="#aV"/></g><g id="v"><use transform="matrix(0.05,0,0,0.05,0,0)" xlink:href="#aW"/><use transform="matrix(0.05,0,0,0.05,10,0)" xlink:href="#aR"/><use transform="matrix(0.05,0,0,0.05,19,0)" xlink:href="#aB"/><use transform="matrix(0.05,0,0,0.05,29,0)" xlink:href="#aI"/></g><g id="w"><use transform="matrix(0.05,0,0,0.05,0,0)" xlink:href="#aM"/><use transform="matrix(0.05,0,0,0.05,3.95,0)" xlink:href="#aA"/><use transform="matrix(0.05,0,0,0.05,13.949999999999998,0)" xlink:href="#aT"/><use transform="matrix(0.05,0,0,0.05,18.95,0)" xlink:href="#az"/></g><g id="x"><use transform="matrix(0.05,0,0,0.05,0,0)" xlink:href="#aX"/><use transform="matrix(0.05,0,0,0.05,12,0)" xlink:href="#aW"/><use transform="matrix(0.05,0,0,0.05,22,0)" xlink:href="#aD"/><use transform="matrix(0.05,0,0,0.05,27,0)" xlink:href="#aY"/><use transform="matrix(0.05,0,0,0.05,37,0)" xlink:href="#aB"/><use transform="matrix(0.05,0,0,0.05,47,0)" xlink:href="#aA"/><use transform="matrix(0.05,0,0,0.05,57,0)" xlink:href="#aD"/><use transform="matrix(0.05,0,0,0.05,62,0)" xlink:href="#aM"/><use transform="matrix(0.05,0,0,0.05,65.95,0)" xlink:href="#aC"/><use transform="matrix(0.05,0,0,0.05,74.95,0)" xlink:href="#aS"/><use transform="matrix(0.05,0,0,0.05,84.95,0)" xlink:href="#aD"/><use transform="matrix(0.05,0,0,0.05,89.95,0)" xlink:href="#aB"/></g><g id="y"><use transform="matrix(0.05,0,0,0.05,0,0)" xlink:href="#aL"/><use transform="matrix(0.05,0,0,0.05,12.950000000000001,0)" xlink:href="#aM"/><use transform="matrix(0.05,0,0,0.05,16.900000000000002,0)" xlink:href="#aD"/><use transform="matrix(0.05,0,0,0.05,21.900000000000002,0)" xlink:href="#aY"/></g><g id="z"><use transform="matrix(0.05,0,0,0.05,0,0)" xlink:href="#aW"/><use transform="matrix(0.05,0,0,0.05,10,0)" xlink:href="#aR"/><use transform="matrix(0.05,0,0,0.05,19,0)" xlink:href="#aB"/><use transform="matrix(0.05,0,0,0.05,29,0)" xlink:href="#aI"/><use transform="matrix(0.05,0,0,0.05,34.95,0)" xlink:href="#aA"/><use transform="matrix(0.05,0,0,0.05,44.95,0)" xlink:href="#aS"/><use transform="matrix(0.05,0,0,0.05,54.95,0)" xlink:href="#aN"/><use transform="matrix(0.05,0,0,0.05,69.9,0)" xlink:href="#aB"/><use transform="matrix(0.05,0,0,0.05,79.9,0)" xlink:href="#aZ"/><use transform="matrix(0.05,0,0,0.05,85.85000000000001,0)" xlink:href="#aO"/><use transform="matrix(0.05,0,0,0.05,95.85000000000001,0)" xlink:href="#aS"/><use transform="matrix(0.05,0,0,0.05,105.85000000000001,0)" xlink:href="#aR"/><use transform="matrix(0.05,0,0,0.05,114.85000000000001,0)" xlink:href="#aR"/><use transform="matrix(0.05,0,0,0.05,123.85000000000001,0)" xlink:href="#aL"/><use transform="matrix(0.05,0,0,0.05,136.8,0)" xlink:href="#az"/><use transform="matrix(0.05,0,0,0.05,146.8,0)" xlink:href="#aI"/><use transform="matrix(0.05,0,0,0.05,152.75,0)" xlink:href="#aV"/></g><g id="A"><use transform="matrix(0.05,0,0,0.05,0,0)" xlink:href="#ay"/><use transform="matrix(0.05,0,0,0.05,12.950000000000001,0)" xlink:href="#az"/><use transform="matrix(0.05,0,0,0.05,22.950000000000003,0)" xlink:href="#aA"/><use transform="matrix(0.05,0,0,0.05,32.95,0)" xlink:href="#aA"/><use transform="matrix(0.05,0,0,0.05,42.95,0)" xlink:href="#aB"/><use transform="matrix(0.05,0,0,0.05,52.95,0)" xlink:href="#aC"/><use transform="matrix(0.05,0,0,0.05,61.95,0)" xlink:href="#aD"/></g><g id="B"><use transform="matrix(0.05,0,0,0.05,0,0)" xlink:href="#aD"/><use transform="matrix(0.05,0,0,0.05,5,0)" xlink:href="#az"/></g><g id="C"><use transform="matrix(0.05,0,0,0.05,0,0)" xlink:href="#aE"/><use transform="matrix(0.05,0,0,0.05,16.599999999999998,0)" xlink:href="#aB"/><use transform="matrix(0.05,0,0,0.05,26.599999999999994,0)" xlink:href="#aF"/><use transform="matrix(0.05,0,0,0.05,36.599999999999994,0)" xlink:href="#aG"/><use transform="matrix(0.05,0,0,0.05,48.599999999999994,0)" xlink:href="#az"/><use transform="matrix(0.05,0,0,0.05,58.599999999999994,0)" xlink:href="#aC"/><use transform="matrix(0.05,0,0,0.05,67.6,0)" xlink:href="#aH"/><use transform="matrix(0.05,0,0,0.05,76.6,0)" xlink:href="#aB"/><use transform="matrix(0.05,0,0,0.05,86.6,0)" xlink:href="#aD"/></g><g id="D"><use transform="matrix(0.05,0,0,0.05,0,0)" xlink:href="#aG"/><use transform="matrix(0.05,0,0,0.05,12,0)" xlink:href="#aB"/><use transform="matrix(0.05,0,0,0.05,22,0)" xlink:href="#aI"/><use transform="matrix(0.05,0,0,0.05,27.950000000000003,0)" xlink:href="#aJ"/><use transform="matrix(0.05,0,0,0.05,36.95,0)" xlink:href="#aB"/><use transform="matrix(0.05,0,0,0.05,46.95,0)" xlink:href="#aI"/></g><g id="E"><use transform="matrix(0.05,0,0,0.05,0,0)" xlink:href="#aG"/><use transform="matrix(0.05,0,0,0.05,12,0)" xlink:href="#aB"/><use transform="matrix(0.05,0,0,0.05,22,0)" xlink:href="#aA"/><use transform="matrix(0.05,0,0,0.05,32,0)" xlink:href="#aV"/></g><g id="F"><use transform="matrix(0.05,0,0,0.05,0,0)" xlink:href="#aQ"/><use transform="matrix(0.05,0,0,0.05,12,0)" xlink:href="#aB"/><use transform="matrix(0.05,0,0,0.05,22,0)" xlink:href="#aB"/><use transform="matrix(0.05,0,0,0.05,32,0)" xlink:href="#aI"/></g><path fill="#333" d="M177-190C167-65 218 103 67 71c-23-6-38-20-44-43l32-5c15 47 100 32 89-28v-30C133-14 115 1 83 1 29 1 15-40 15-95c0-56 16-97 71-98 29-1 48 16 59 35 1-10 0-23 2-32h30zM94-22c36 0 50-32 50-73 0-42-14-75-50-75-39 0-46 34-46 75s6 73 46 73" id="bb"/><g id="G"><use transform="matrix(0.05,0,0,0.05,0,0)" xlink:href="#aG"/><use transform="matrix(0.05,0,0,0.05,12,0)" xlink:href="#aM"/><use transform="matrix(0.05,0,0,0.05,15.949999999999998,0)" xlink:href="#bb"/><use transform="matrix(0.05,0,0,0.05,25.950000000000003,0)" xlink:href="#aA"/><use transform="matrix(0.05,0,0,0.05,35.95,0)" xlink:href="#aS"/><use transform="matrix(0.05,0,0,0.05,45.95,0)" xlink:href="#aP"/></g><g id="H"><use transform="matrix(0.05,0,0,0.05,0,0)" xlink:href="#aK"/><use transform="matrix(0.05,0,0,0.05,12.950000000000001,0)" xlink:href="#aB"/><use transform="matrix(0.05,0,0,0.05,22.950000000000003,0)" xlink:href="#aL"/></g><g id="I"><use transform="matrix(0.05,0,0,0.05,0,0)" xlink:href="#aG"/><use transform="matrix(0.05,0,0,0.05,12,0)" xlink:href="#aM"/><use transform="matrix(0.05,0,0,0.05,15.949999999999998,0)" xlink:href="#aN"/><use transform="matrix(0.05,0,0,0.05,30.899999999999995,0)" xlink:href="#aO"/><use transform="matrix(0.05,0,0,0.05,40.9,0)" xlink:href="#aP"/><use transform="matrix(0.05,0,0,0.05,44.85,0)" xlink:href="#aB"/><use transform="matrix(0.05,0,0,0.05,54.85,0)" xlink:href="#aQ"/><use transform="matrix(0.05,0,0,0.05,66.85,0)" xlink:href="#aB"/><use transform="matrix(0.05,0,0,0.05,76.85,0)" xlink:href="#aB"/><use transform="matrix(0.05,0,0,0.05,86.85,0)" xlink:href="#aI"/></g><g id="J"><use transform="matrix(0.05,0,0,0.05,0,0)" xlink:href="#aM"/><use transform="matrix(0.05,0,0,0.05,3.95,0)" xlink:href="#aA"/><use transform="matrix(0.05,0,0,0.05,13.949999999999998,0)" xlink:href="#aR"/><use transform="matrix(0.05,0,0,0.05,22.95,0)" xlink:href="#aD"/><use transform="matrix(0.05,0,0,0.05,27.950000000000003,0)" xlink:href="#aS"/><use transform="matrix(0.05,0,0,0.05,37.95,0)" xlink:href="#aA"/><use transform="matrix(0.05,0,0,0.05,47.95,0)" xlink:href="#aC"/><use transform="matrix(0.05,0,0,0.05,56.95,0)" xlink:href="#aB"/></g><g id="K"><use transform="matrix(0.05,0,0,0.05,0,0)" xlink:href="#aS"/><use transform="matrix(0.05,0,0,0.05,10,0)" xlink:href="#aA"/><use transform="matrix(0.05,0,0,0.05,20,0)" xlink:href="#aV"/></g><g id="L"><use transform="matrix(0.05,0,0,0.05,0,0)" xlink:href="#aC"/><use transform="matrix(0.05,0,0,0.05,9,0)" xlink:href="#aS"/><use transform="matrix(0.05,0,0,0.05,19,0)" xlink:href="#aP"/><use transform="matrix(0.05,0,0,0.05,22.95,0)" xlink:href="#aP"/></g><g id="M"><use transform="matrix(0.05,0,0,0.05,0,0)" xlink:href="#aG"/><use transform="matrix(0.05,0,0,0.05,12,0)" xlink:href="#aM"/><use transform="matrix(0.05,0,0,0.05,15.949999999999998,0)" xlink:href="#bb"/><use transform="matrix(0.05,0,0,0.05,25.950000000000003,0)" xlink:href="#aA"/><use transform="matrix(0.05,0,0,0.05,35.95,0)" xlink:href="#aS"/><use transform="matrix(0.05,0,0,0.05,45.95,0)" xlink:href="#aP"/></g><path fill="#333" d="M33 0v-248h34V0H33" id="bc"/><g id="N"><use transform="matrix(0.05,0,0,0.05,0,0)" xlink:href="#aX"/><use transform="matrix(0.05,0,0,0.05,12,0)" xlink:href="#aQ"/><use transform="matrix(0.05,0,0,0.05,24,0)" xlink:href="#bc"/></g><g id="O"><use transform="matrix(0.05,0,0,0.05,0,0)" xlink:href="#aS"/><use transform="matrix(0.05,0,0,0.05,10,0)" xlink:href="#aC"/><use transform="matrix(0.05,0,0,0.05,19,0)" xlink:href="#aC"/><use transform="matrix(0.05,0,0,0.05,28,0)" xlink:href="#aB"/><use transform="matrix(0.05,0,0,0.05,38,0)" xlink:href="#aO"/><use transform="matrix(0.05,0,0,0.05,48,0)" xlink:href="#aD"/></g><g id="P"><use transform="matrix(0.05,0,0,0.05,0,0)" xlink:href="#aD"/><use transform="matrix(0.05,0,0,0.05,5,0)" xlink:href="#aY"/><use transform="matrix(0.05,0,0,0.05,15,0)" xlink:href="#aB"/></g><g id="Q"><use transform="matrix(0.05,0,0,0.05,0,0)" xlink:href="#aC"/><use transform="matrix(0.05,0,0,0.05,9,0)" xlink:href="#az"/><use transform="matrix(0.05,0,0,0.05,19,0)" xlink:href="#aA"/><use transform="matrix(0.05,0,0,0.05,29,0)" xlink:href="#aA"/><use transform="matrix(0.05,0,0,0.05,39,0)" xlink:href="#aB"/><use transform="matrix(0.05,0,0,0.05,49,0)" xlink:href="#aC"/><use transform="matrix(0.05,0,0,0.05,58,0)" xlink:href="#aD"/><use transform="matrix(0.05,0,0,0.05,63,0)" xlink:href="#aM"/><use transform="matrix(0.05,0,0,0.05,66.95,0)" xlink:href="#az"/><use transform="matrix(0.05,0,0,0.05,76.95,0)" xlink:href="#aA"/></g><g id="R"><use transform="matrix(0.05,0,0,0.05,0,0)" xlink:href="#aC"/><use transform="matrix(0.05,0,0,0.05,9,0)" xlink:href="#az"/><use transform="matrix(0.05,0,0,0.05,19,0)" xlink:href="#aA"/><use transform="matrix(0.05,0,0,0.05,29,0)" xlink:href="#aA"/><use transform="matrix(0.05,0,0,0.05,39,0)" xlink:href="#aB"/><use transform="matrix(0.05,0,0,0.05,49,0)" xlink:href="#aC"/><use transform="matrix(0.05,0,0,0.05,58,0)" xlink:href="#aD"/><use transform="matrix(0.05,0,0,0.05,63,0)" xlink:href="#aM"/><use transform="matrix(0.05,0,0,0.05,66.95,0)" xlink:href="#az"/><use transform="matrix(0.05,0,0,0.05,76.95,0)" xlink:href="#aA"/></g><g id="S"><use transform="matrix(0.05,0,0,0.05,0,0)" xlink:href="#aS"/><use transform="matrix(0.05,0,0,0.05,10,0)" xlink:href="#aC"/><use transform="matrix(0.05,0,0,0.05,19,0)" xlink:href="#aC"/><use transform="matrix(0.05,0,0,0.05,28,0)" xlink:href="#aB"/><use transform="matrix(0.05,0,0,0.05,38,0)" xlink:href="#aO"/><use transform="matrix(0.05,0,0,0.05,48,0)" xlink:href="#aD"/><use transform="matrix(0.05,0,0,0.05,53,0)" xlink:href="#aB"/><use transform="matrix(0.05,0,0,0.05,63,0)" xlink:href="#aV"/></g><g id="T"><use transform="matrix(0.05,0,0,0.05,0,0)" xlink:href="#ay"/><use transform="matrix(0.05,0,0,0.05,12.950000000000001,0)" xlink:href="#aS"/><use transform="matrix(0.05,0,0,0.05,22.950000000000003,0)" xlink:href="#aP"/><use transform="matrix(0.05,0,0,0.05,26.900000000000002,0)" xlink:href="#aP"/></g><g id="U"><use transform="matrix(0.05,0,0,0.05,0,0)" xlink:href="#aB"/><use transform="matrix(0.05,0,0,0.05,10,0)" xlink:href="#aJ"/><use transform="matrix(0.05,0,0,0.05,19,0)" xlink:href="#aB"/><use transform="matrix(0.05,0,0,0.05,29,0)" xlink:href="#aA"/><use transform="matrix(0.05,0,0,0.05,39,0)" xlink:href="#aD"/><use transform="matrix(0.05,0,0,0.05,44,0)" xlink:href="#aW"/><use transform="matrix(0.05,0,0,0.05,54,0)" xlink:href="#aS"/><use transform="matrix(0.05,0,0,0.05,64,0)" xlink:href="#aP"/><use transform="matrix(0.05,0,0,0.05,67.95,0)" xlink:href="#aP"/><use transform="matrix(0.05,0,0,0.05,71.9,0)" xlink:href="#aU"/></g><g id="V"><use transform="matrix(0.05,0,0,0.05,0,0)" xlink:href="#aB"/><use transform="matrix(0.05,0,0,0.05,10,0)" xlink:href="#aR"/><use transform="matrix(0.05,0,0,0.05,19,0)" xlink:href="#aD"/><use transform="matrix(0.05,0,0,0.05,24,0)" xlink:href="#aS"/><use transform="matrix(0.05,0,0,0.05,34,0)" xlink:href="#aF"/><use transform="matrix(0.05,0,0,0.05,44,0)" xlink:href="#aP"/><use transform="matrix(0.05,0,0,0.05,47.95,0)" xlink:href="#aM"/><use transform="matrix(0.05,0,0,0.05,51.900000000000006,0)" xlink:href="#aR"/><use transform="matrix(0.05,0,0,0.05,60.900000000000006,0)" xlink:href="#aY"/></g><path fill="#333" d="M24-248c93 1 206-16 204 79-1 75-69 88-152 82V0H24v-248zm52 121c47 0 100 7 100-41 0-47-54-39-100-39v80" id="bd"/><g id="W"><use transform="matrix(0.056172839506172835,0,0,0.056172839506172835,0,0)" xlink:href="#bd"/><use transform="matrix(0.056172839506172835,0,0,0.056172839506172835,13.481481481481481,0)" xlink:href="#av"/><use transform="matrix(0.056172839506172835,0,0,0.056172839506172835,24.716049382716047,0)" xlink:href="#av"/><use transform="matrix(0.056172839506172835,0,0,0.056172839506172835,35.95061728395061,0)" xlink:href="#aw"/></g><path fill="#333" d="M199 0l-22-63H83L61 0H9l90-248h61L250 0h-51zm-33-102l-36-108c-10 38-24 72-36 108h72" id="be"/><use transform="matrix(0.056172839506172835,0,0,0.056172839506172835,0,0)" xlink:href="#be" id="X"/><path fill="#333" d="M85 4C-2 5 27-109 22-190h50c7 57-23 150 33 157 60-5 35-97 40-157h50l1 190h-47c-2-12 1-28-3-38-12 25-28 42-61 42" id="bf"/><path fill="#333" d="M195-6C206 82 75 100 31 46c-4-6-6-13-8-21l49-6c3 16 16 24 34 25 40 0 42-37 40-79-11 22-30 35-61 35-53 0-70-43-70-97 0-56 18-96 73-97 30 0 46 14 59 34l2-30h47zm-90-29c32 0 41-27 41-63 0-35-9-62-40-62-32 0-39 29-40 63 0 36 9 62 39 62" id="bg"/><g id="Y"><use transform="matrix(0.056172839506172835,0,0,0.056172839506172835,0,0)" xlink:href="#aw"/><use transform="matrix(0.056172839506172835,0,0,0.056172839506172835,7.864197530864197,0)" xlink:href="#bf"/><use transform="matrix(0.056172839506172835,0,0,0.056172839506172835,20.166049382716047,0)" xlink:href="#ar"/><use transform="matrix(0.056172839506172835,0,0,0.056172839506172835,32.4679012345679,0)" xlink:href="#ar"/><use transform="matrix(0.056172839506172835,0,0,0.056172839506172835,44.76975308641975,0)" xlink:href="#ao"/><use transform="matrix(0.056172839506172835,0,0,0.056172839506172835,50.38703703703703,0)" xlink:href="#ar"/><use transform="matrix(0.056172839506172835,0,0,0.056172839506172835,62.68888888888888,0)" xlink:href="#bg"/><path fill="#333" d="M73.98 1.1H76v2.1h-2.02z"/></g><g id="Z"><use transform="matrix(0.056172839506172835,0,0,0.056172839506172835,0,0)" xlink:href="#an"/><use transform="matrix(0.056172839506172835,0,0,0.056172839506172835,11.90864197530864,0)" xlink:href="#ao"/><use transform="matrix(0.056172839506172835,0,0,0.056172839506172835,17.525925925925925,0)" xlink:href="#ap"/><use transform="matrix(0.056172839506172835,0,0,0.056172839506172835,24.21049382716049,0)" xlink:href="#aq"/><use transform="matrix(0.056172839506172835,0,0,0.056172839506172835,35.44506172839506,0)" xlink:href="#ar"/><use transform="matrix(0.056172839506172835,0,0,0.056172839506172835,47.74691358024691,0)" xlink:href="#as"/><use transform="matrix(0.056172839506172835,0,0,0.056172839506172835,62.29567901234567,0)" xlink:href="#at"/><path fill="#333" d="M-1 1.1h84.47v2.1H-1z"/></g><path fill="#333" d="M25 0v-261h50V0H25" id="bh"/><g id="aa"><use transform="matrix(0.056172839506172835,0,0,0.056172839506172835,0,0)" xlink:href="#at"/><use transform="matrix(0.056172839506172835,0,0,0.056172839506172835,14.548765432098763,0)" xlink:href="#bh"/><use transform="matrix(0.056172839506172835,0,0,0.056172839506172835,20.166049382716047,0)" xlink:href="#ao"/><use transform="matrix(0.056172839506172835,0,0,0.056172839506172835,25.78333333333333,0)" xlink:href="#av"/><use transform="matrix(0.056172839506172835,0,0,0.056172839506172835,37.0179012345679,0)" xlink:href="#ar"/><use transform="matrix(0.056172839506172835,0,0,0.056172839506172835,49.31975308641975,0)" xlink:href="#ap"/><path fill="#333" d="M-1 1.1H57v2.1H-1z"/></g><path fill="#333" d="M182-130c37 4 62 22 62 59C244 23 116-4 24 0v-248c84 5 203-23 205 63 0 31-19 50-47 55zM76-148c40-3 101 13 101-30 0-44-60-28-101-31v61zm0 110c48-3 116 14 116-37 0-48-69-32-116-35v72" id="bi"/><use transform="matrix(0.056172839506172835,0,0,0.056172839506172835,0,0)" xlink:href="#bi" id="ab"/><path fill="#333" d="M137 0h-34L2-248h35l83 218 83-218h36" id="bj"/><path fill="#333" d="M0 4l72-265h28L28 4H0" id="bk"/><g id="ac"><use transform="matrix(0.05,0,0,0.05,0,0)" xlink:href="#bj"/><use transform="matrix(0.05,0,0,0.05,11.65,0)" xlink:href="#aM"/><use transform="matrix(0.05,0,0,0.05,15.600000000000001,0)" xlink:href="#aV"/><use transform="matrix(0.05,0,0,0.05,25.6,0)" xlink:href="#aB"/><use transform="matrix(0.05,0,0,0.05,35.6,0)" xlink:href="#az"/><use transform="matrix(0.05,0,0,0.05,45.6,0)" xlink:href="#bk"/><use transform="matrix(0.05,0,0,0.05,50.6,0)" xlink:href="#aX"/><use transform="matrix(0.05,0,0,0.05,62.6,0)" xlink:href="#aW"/><use transform="matrix(0.05,0,0,0.05,72.6,0)" xlink:href="#aD"/><use transform="matrix(0.05,0,0,0.05,77.6,0)" xlink:href="#az"/></g><g id="ad"><use transform="matrix(0.05,0,0,0.05,0,0)" xlink:href="#ay"/><use transform="matrix(0.05,0,0,0.05,12.950000000000001,0)" xlink:href="#aS"/><use transform="matrix(0.05,0,0,0.05,22.950000000000003,0)" xlink:href="#aP"/><use transform="matrix(0.05,0,0,0.05,26.900000000000002,0)" xlink:href="#aP"/></g><path fill="#333" d="M127-220V0H93v-220H8v-28h204v28h-85" id="bl"/><path fill="#333" d="M141 0L90-78 38 0H4l68-98-65-92h35l48 74 47-74h35l-64 92 68 98h-35" id="bm"/><g id="ae"><use transform="matrix(0.05,0,0,0.05,0,0)" xlink:href="#bl"/><use transform="matrix(0.05,0,0,0.05,8.950000000000001,0)" xlink:href="#aB"/><use transform="matrix(0.05,0,0,0.05,18.950000000000003,0)" xlink:href="#bm"/><use transform="matrix(0.05,0,0,0.05,27.950000000000003,0)" xlink:href="#aD"/></g><path fill="#333" d="M160-131c35 5 61 23 61 61C221 17 115-2 30 0v-248c76 3 177-17 177 60 0 33-19 50-47 57zm-97-11c50-1 110 9 110-42 0-47-63-36-110-37v79zm0 115c55-2 124 14 124-45 0-56-70-42-124-44v89" id="bn"/><use transform="matrix(0.05,0,0,0.05,0,0)" xlink:href="#bn" id="af"/><g id="ag"><use transform="matrix(0.05,0,0,0.05,0,0)" xlink:href="#aM"/><use transform="matrix(0.05,0,0,0.05,3.95,0)" xlink:href="#aA"/><use transform="matrix(0.05,0,0,0.05,13.949999999999998,0)" xlink:href="#aC"/><use transform="matrix(0.05,0,0,0.05,22.95,0)" xlink:href="#az"/><use transform="matrix(0.05,0,0,0.05,32.95,0)" xlink:href="#aN"/><use transform="matrix(0.05,0,0,0.05,47.900000000000006,0)" xlink:href="#aM"/><use transform="matrix(0.05,0,0,0.05,51.85,0)" xlink:href="#aA"/><use transform="matrix(0.05,0,0,0.05,61.85,0)" xlink:href="#bb"/></g><g id="ah"><use transform="matrix(0.05,0,0,0.05,0,0)" xlink:href="#aC"/><use transform="matrix(0.05,0,0,0.05,9,0)" xlink:href="#aS"/><use transform="matrix(0.05,0,0,0.05,19,0)" xlink:href="#aP"/><use transform="matrix(0.05,0,0,0.05,22.95,0)" xlink:href="#aP"/></g><path fill="#333" d="M143 4C61 4 22-44 18-125c-5-107 100-154 193-111 17 8 29 25 37 43l-32 9c-13-25-37-40-76-40-61 0-88 39-88 99 0 61 29 100 91 101 35 0 62-11 79-27v-45h-74v-28h105v86C228-13 192 4 143 4" id="bo"/><g id="aj"><use transform="matrix(0.05,0,0,0.05,0,0)" xlink:href="#bo"/><use transform="matrix(0.05,0,0,0.05,14,0)" xlink:href="#aB"/><use transform="matrix(0.05,0,0,0.05,24,0)" xlink:href="#aD"/></g><g id="ak"><use transform="matrix(0.05,0,0,0.05,0,0)" xlink:href="#aJ"/><use transform="matrix(0.05,0,0,0.05,9,0)" xlink:href="#aM"/><use transform="matrix(0.05,0,0,0.05,12.949999999999998,0)" xlink:href="#aV"/><use transform="matrix(0.05,0,0,0.05,22.95,0)" xlink:href="#aB"/><use transform="matrix(0.05,0,0,0.05,32.95,0)" xlink:href="#az"/><use transform="matrix(0.05,0,0,0.05,42.95,0)" xlink:href="#bk"/><use transform="matrix(0.05,0,0,0.05,47.95,0)" xlink:href="#aS"/><use transform="matrix(0.05,0,0,0.05,57.95,0)" xlink:href="#aW"/><use transform="matrix(0.05,0,0,0.05,67.95,0)" xlink:href="#aV"/><use transform="matrix(0.05,0,0,0.05,77.95,0)" xlink:href="#aM"/><use transform="matrix(0.05,0,0,0.05,81.9,0)" xlink:href="#az"/></g><g id="al"><use transform="matrix(0.05,0,0,0.05,0,0)" xlink:href="#aR"/><use transform="matrix(0.05,0,0,0.05,9,0)" xlink:href="#aD"/><use transform="matrix(0.05,0,0,0.05,14,0)" xlink:href="#aI"/><use transform="matrix(0.05,0,0,0.05,19.95,0)" xlink:href="#aB"/><use transform="matrix(0.05,0,0,0.05,29.950000000000003,0)" xlink:href="#aS"/><use transform="matrix(0.05,0,0,0.05,39.95,0)" xlink:href="#aN"/></g><g id="am"><use transform="matrix(0.05,0,0,0.05,0,0)" xlink:href="#bo"/><use transform="matrix(0.05,0,0,0.05,14,0)" xlink:href="#aB"/><use transform="matrix(0.05,0,0,0.05,24,0)" xlink:href="#aD"/></g></defs></g></svg>